<svg version="1.1" id="Capa_1" xmlns="http://www.w3.org/2000/svg" xmlns:xlink="http://www.w3.org/1999/xlink" x="0" y="0" viewBox="0 0 512.001 512.001" xml:space="preserve"><path d="M489.502 218.492h-7.496V115.988c0-26.192-21.309-47.501-47.5-47.501H228.527L89.564 28.783c-.04-.011-.081-.017-.121-.028-.041-.011-.08-.027-.121-.037-.084-.021-.167-.031-.25-.049-.129-.027-.258-.055-.387-.076-.117-.019-.232-.031-.349-.045a7.042 7.042 0 00-.406-.038c-.11-.006-.219-.007-.329-.009a7.276 7.276 0 00-.418.003c-.103.004-.206.014-.308.022a6.712 6.712 0 00-.427.046c-.096.014-.191.032-.286.049-.146.026-.29.054-.433.089-.089.022-.176.047-.264.072-.146.042-.29.085-.434.135-.081.029-.161.06-.242.092a7.358 7.358 0 00-.43.18c-.075.035-.148.073-.222.11a6.66 6.66 0 00-.416.224c-.071.041-.139.085-.209.129-.134.084-.266.17-.394.263-.067.048-.132.1-.198.151a7.277 7.277 0 00-.362.295c-.066.058-.129.119-.193.179-.11.104-.219.208-.323.318-.065.069-.126.141-.189.213a7.45 7.45 0 00-.278.334c-.064.083-.124.168-.185.253a6.913 6.913 0 00-.229.338c-.062.098-.119.2-.176.301a6.86 6.86 0 00-.183.338c-.056.112-.106.227-.157.342-.05.113-.099.226-.143.342-.046.122-.086.247-.127.373-.026.081-.058.157-.082.239-.012.041-.017.081-.028.121-.011.041-.027.08-.037.121l-8.576 34.312H47.505C21.366 68.485.094 89.708.008 115.828c-.001.054-.008.105-.008.158v260c0 4.14 3.37 7.5 7.5 7.5 4.14 0 7.5-3.36 7.5-7.5V150.579c8.504 7.996 19.938 12.91 32.505 12.91h387.001l.026-.001c17.908.014 32.474 14.588 32.474 32.501v52.504h-82.512l-.014.001a7.468 7.468 0 00-1.355.13c-.035.006-.069.009-.104.016a7.536 7.536 0 00-.579.145c-.042.012-.085.02-.126.033-.17.052-.335.114-.5.177-.063.024-.127.044-.19.07-.138.057-.271.124-.404.189-.088.042-.177.081-.263.126-.104.055-.202.118-.302.178-.111.066-.224.13-.332.202-.073.048-.14.103-.21.154-.128.092-.257.183-.379.284-.053.044-.102.093-.153.138-.131.114-.262.227-.386.351-.073.073-.139.153-.208.229-.097.105-.197.208-.289.32a7.573 7.573 0 00-.444.599l-39.998 60.001a7.383 7.383 0 00-.702 1.322c-.071.172-.128.347-.185.521-.017.053-.039.104-.055.157a7.46 7.46 0 00-.14.558c-.011.049-.025.097-.035.146a7.265 7.265 0 00-.076.506c-.009.072-.023.144-.03.217-.014.139-.017.277-.022.416-.005.106-.014.212-.014.319 0 .103.009.206.013.309.005.142.009.285.023.427.007.069.02.138.029.207.022.172.044.344.078.515.009.047.023.093.034.14.041.188.085.376.141.563.016.053.038.104.055.158.057.174.114.349.185.521.188.46.424.904.704 1.323l39.997 59.992.006.008c.161.239.337.467.523.686.061.072.126.139.189.207a7.508 7.508 0 001.091.979c.07.051.137.107.208.155.225.153.458.294.699.422.061.032.124.059.185.089a7.239 7.239 0 001.407.532c.081.021.161.043.243.063.203.047.409.083.618.113.076.011.151.026.227.035.258.029.52.045.786.047.021 0 .042.004.064.004l.014-.001h82.491V436c0 17.922-14.58 32.502-32.5 32.502h-387c-17.92 0-32.5-14.58-32.5-32.502 0-.039-.005-.077-.006-.116V405.99c0-4.13-3.36-7.5-7.5-7.5-4.13 0-7.5 3.37-7.5 7.5V436c0 .078.009.154.012.231.125 26.086 21.38 47.271 47.494 47.271h387c26.189 0 47.496-21.305 47.5-47.494v-52.516h7.496c12.404 0 22.496-10.092 22.496-22.496V240.988c-.003-12.404-10.095-22.496-22.499-22.496zM92.9 45.336l132.339 37.813.019.005 88.696 25.342H77.114L92.9 45.336zm374.105 116.058c-8.503-7.994-19.935-12.907-32.499-12.907l-.039.002H47.505c-17.921 0-32.501-14.58-32.501-32.501s14.58-32.501 32.501-32.501h20.398l-6.25 25.009H47.507a7.5 7.5 0 000 15h19.976l.032.002.023-.002h299.941l.028.002.024-.002h56.966a7.5 7.5 0 000-15h-55.943l-87.529-25.009h153.48c17.92 0 32.5 14.58 32.5 32.501v45.406zm29.993 199.598c0 4.133-3.363 7.496-7.496 7.496H388.508l-34.999-52.494 34.999-52.502h100.994c.105 0 .207-.012.311-.016a22.414 22.414 0 007.185-1.281v98.797zm-7.496-112.508c-.052 0-.103.007-.155.008h-7.341v-15h7.496c4.133 0 7.496 3.363 7.496 7.496s-3.363 7.496-7.496 7.496z"/><path d="M414.499 288.493c-15.164 0-27.5 12.337-27.5 27.501s12.336 27.5 27.5 27.5 27.5-12.336 27.5-27.5-12.336-27.501-27.5-27.501zm0 40.001c-6.893 0-12.5-5.607-12.5-12.5s5.607-12.501 12.5-12.501 12.5 5.608 12.5 12.501-5.607 12.5-12.5 12.5z"/></svg>