<?xml version="1.0" ?><!DOCTYPE svg PUBLIC "-//W3C//DTD SVG 1.1//EN" "http://www.w3.org/Graphics/SVG/1.1/DTD/svg11.dtd"><svg viewBox="0 0 729.837 729.838" xmlns="http://www.w3.org/2000/svg" xmlns:xlink="http://www.w3.org/1999/xlink"><style>:root>svg{display:none}:root>svg:target{display:block}</style><svg baseProfile="tiny" version="1.2" viewBox="0 0 24 24" id="add" xmlns="http://www.w3.org/2000/svg"><path d="M20.756 5.345A1.003 1.003 0 0020 5H6.181l-.195-1.164A1 1 0 005 3H2.75a1 1 0 100 2h1.403l1.86 11.164c.008.045.031.082.045.124.016.053.029.103.054.151a.982.982 0 00.12.179c.031.039.059.078.095.112a.96.96 0 00.193.13c.038.021.071.049.112.065a.97.97 0 00.367.075H18a1 1 0 100-2H7.847l-.166-1H19a1 1 0 00.99-.858l1-7a1.002 1.002 0 00-.234-.797zM18.847 7l-.285 2H15V7h3.847zM14 7v2h-3V7h3zm0 3v2h-3v-2h3zm-4-3v2H7a.481.481 0 00-.148.03L6.514 7H10zm-2.986 3H10v2H7.347l-.333-2zM15 12v-2h3.418l-.285 2H15z"/><circle cx="8.5" cy="19.5" r="1.5"/><circle cx="17.5" cy="19.5" r="1.5"/></svg><svg viewBox="0 0 128 128" id="add-user" xmlns="http://www.w3.org/2000/svg"><path d="M8.785 119.203a2.686 2.686 0 01-.766-1.906c.021-1.344.391-13.309 6.703-19.625 2.912-2.914 9.012-6.07 17.983-10.561 9.574-4.785 14.883-7.639 17.33-9.953l5.395-5.102-4.688-5.76c-7.383-9.072-11.619-19.09-11.619-27.482 0-6.473 0-13.809 3.063-19.877C45.852 11.68 53.192 8 64.008 8c10.814 0 18.158 3.68 21.82 10.936 3.063 6.07 3.063 13.406 3.063 19.879 0 8.391-4.234 18.408-11.621 27.482l-4.688 5.762 5.398 5.104c1.223 1.154 3.164 2.447 5.998 4.049V72h.324c-.318-.232-.627-.461-.828-.652 8.489-10.434 13.413-22.217 13.413-32.533 0-7 0-15.713-3.918-23.482C89.438 8.338 81.549 0 64.008 0 46.467 0 38.577 8.338 35.047 15.332c-3.922 7.77-3.922 16.48-3.922 23.482 0 10.318 4.924 22.1 13.414 32.533-2.027 1.918-10.387 6.098-15.41 8.607-9.963 4.984-16.284 8.279-20.063 12.061C.697 100.386.064 114.437.023 117.171a10.668 10.668 0 003.063 7.648 10.68 10.68 0 007.598 3.18h73.295v-8H10.684a2.665 2.665 0 01-1.899-.796zM115.978 88h-4v-4c0-6.617-5.383-12-12-12s-11.999 5.383-11.999 12v4h-4c-6.617 0-12 5.383-12 12s5.383 12 12 12h4v4c0 6.617 5.382 12 11.999 12s12-5.383 12-12v-4h4c6.617 0 12-5.383 12-12s-5.383-12-12-12zm0 16h-12v12c0 2.211-1.789 4-4 4s-4-1.789-4-4v-12H83.979c-2.211 0-4-1.789-4-4s1.789-4 4-4h11.999V84c0-2.211 1.789-4 4-4s4 1.789 4 4v12h12c2.211 0 4 1.789 4 4s-1.79 4-4 4z"/></svg><svg viewBox="0 0 60 60" id="alert" xmlns="http://www.w3.org/2000/svg"><path d="M47.024 31.5v-8.994c.043-6.857-4.568-11.405-8.53-13.216A20.104 20.104 0 0035 8.074V7.5c0-2.757-2.243-5-5-5s-5 2.243-5 5v.661a19.8 19.8 0 00-3.146 1.138C17.476 11.317 13.04 16.181 13 22.5v9c0 6.388-2.256 11.869-6.705 16.291a1.002 1.002 0 00.535 1.695l9.491 1.639c1.768.305 3.396.555 4.945.761 1.745 3.42 5.172 5.615 8.916 5.615 3.745 0 7.173-2.196 8.917-5.618 1.543-.205 3.163-.454 4.921-.758l9.49-1.639a1 1 0 00.535-1.695c-4.658-4.631-7.021-10.112-7.021-16.291zM27 7.5c0-1.654 1.346-3 3-3s3 1.346 3 3v.182a19.883 19.883 0 00-6 .047V7.5zm3.183 48c-2.532 0-4.898-1.258-6.417-3.315 2.235.23 4.321.346 6.406.346 2.093 0 4.186-.116 6.43-.349-1.52 2.059-3.887 3.318-6.419 3.318zm13.498-6.347c-1.919.331-3.678.6-5.34.812h-.007c-.733.093-1.445.174-2.142.244l-.017.001c-.639.064-1.263.116-1.881.16l-.347.023c-.535.035-1.064.063-1.59.083-.107.004-.215.01-.322.013a55.413 55.413 0 01-3.714.001l-.334-.014a60.833 60.833 0 01-1.565-.082l-.376-.025a64.796 64.796 0 01-1.824-.155l-.068-.006a80.151 80.151 0 01-2.124-.242h-.009a121.217 121.217 0 01-5.361-.814L9 47.83c3.983-4.554 6-10.038 6-16.33v-8.994c.034-5.435 3.888-9.637 7.691-11.391a17.877 17.877 0 013.497-1.183c.01-.002.021-.001.031-.003a18.18 18.18 0 017.58-.068c.013.003.026-.003.039-.001 1.304.272 2.588.684 3.825 1.249 3.689 1.687 7.396 5.861 7.361 11.392v9c0 6.033 2.175 11.643 6.313 16.331l-7.656 1.321z"/><path d="M36.417 13.838c-3.875-1.771-8.62-1.773-12.469.002-2.195 1.012-5.918 3.973-5.948 8.654a1 1 0 00.994 1.006H19a1 1 0 001-.994c.023-3.677 3.019-6.035 4.785-6.85 3.33-1.537 7.446-1.533 10.799 0a1 1 0 00.833-1.818zM4.802 22.793a.999.999 0 00-1.414 0A11.503 11.503 0 000 30.983c0 3.097 1.203 6.006 3.388 8.19a.997.997 0 001.414 0 .999.999 0 000-1.414A9.517 9.517 0 012 30.983c0-2.563.995-4.97 2.802-6.776a1 1 0 000-1.414z"/><path d="M8.305 37.19a.999.999 0 00.707-1.707 6.565 6.565 0 010-9.276.999.999 0 10-1.414-1.414c-3.337 3.337-3.337 8.768 0 12.104a.993.993 0 00.707.293zM56.612 22.793a.999.999 0 10-1.414 1.414A9.517 9.517 0 0158 30.983a9.517 9.517 0 01-2.802 6.776.999.999 0 101.414 1.414A11.502 11.502 0 0060 30.983c0-3.097-1.203-6.005-3.388-8.19z"/><path d="M50.988 24.793a.999.999 0 000 1.414 6.565 6.565 0 010 9.276.999.999 0 101.414 1.414c3.337-3.337 3.337-8.768 0-12.104a.999.999 0 00-1.414 0z"/></svg><svg viewBox="0 0 482.9 482.9" id="avatar" xmlns="http://www.w3.org/2000/svg"><path d="M239.7 260.2h3.2c29.3-.5 53-10.8 70.5-30.5 38.5-43.4 32.1-117.8 31.4-124.9-2.5-53.3-27.7-78.8-48.5-90.7C280.8 5.2 262.7.4 242.5 0H240.8c-11.1 0-32.9 1.8-53.8 13.7-21 11.9-46.6 37.4-49.1 91.1-.7 7.1-7.1 81.5 31.4 124.9 17.4 19.7 41.1 30 70.4 30.5zm-75.1-152.9c0-.3.1-.6.1-.8 3.3-71.7 54.2-79.4 76-79.4H241.9c27 .6 72.9 11.6 76 79.4 0 .3 0 .6.1.8.1.7 7.1 68.7-24.7 104.5-12.6 14.2-29.4 21.2-51.5 21.4h-1c-22-.2-38.9-7.2-51.4-21.4-31.7-35.6-24.9-103.9-24.8-104.5z"/><path d="M446.8 383.6v-.3c0-.8-.1-1.6-.1-2.5-.6-19.8-1.9-66.1-45.3-80.9-.3-.1-.7-.2-1-.3-45.1-11.5-82.6-37.5-83-37.8-6.1-4.3-14.5-2.8-18.8 3.3-4.3 6.1-2.8 14.5 3.3 18.8 1.7 1.2 41.5 28.9 91.3 41.7 23.3 8.3 25.9 33.2 26.6 56 0 .9 0 1.7.1 2.5.1 9-.5 22.9-2.1 30.9-16.2 9.2-79.7 41-176.3 41-96.2 0-160.1-31.9-176.4-41.1-1.6-8-2.3-21.9-2.1-30.9 0-.8.1-1.6.1-2.5.7-22.8 3.3-47.7 26.6-56 49.8-12.8 89.6-40.6 91.3-41.7 6.1-4.3 7.6-12.7 3.3-18.8-4.3-6.1-12.7-7.6-18.8-3.3-.4.3-37.7 26.3-83 37.8-.4.1-.7.2-1 .3-43.4 14.9-44.7 61.2-45.3 80.9 0 .9 0 1.7-.1 2.5v.3c-.1 5.2-.2 31.9 5.1 45.3 1 2.6 2.8 4.8 5.2 6.3 3 2 74.9 47.8 195.2 47.8s192.2-45.9 195.2-47.8c2.3-1.5 4.2-3.7 5.2-6.3 5-13.3 4.9-40 4.8-45.2z"/></svg><svg viewBox="0 0 60 60" id="close" xmlns="http://www.w3.org/2000/svg"><path class="est0" d="M60 29.3v1.4c0 .2-.1.5-.1.7-.1 1-.1 2.1-.3 3.1-1 6.4-3.8 12-8.4 16.6-4.7 4.7-10.4 7.6-17.1 8.5-.9.1-1.9.2-2.8.3h-2.7c-.5-.1-1-.1-1.4-.2-5.5-.6-10.5-2.4-14.9-5.7C5.9 49.4 1.9 43.1.5 35.2.3 34.1.2 33 0 31.9v-3.8c0-.4.1-.8.1-1.2.8-6.3 3.1-11.9 7.4-16.7 4.9-5.5 11-8.8 18.2-9.9.8-.1 1.7-.2 2.5-.3h3.4c.2 0 .4.1.6.1 1.3.2 2.6.3 3.8.5 6.6 1.4 12.2 4.7 16.6 9.8 3.9 4.5 6.2 9.6 7 15.5.2 1.1.3 2.3.4 3.4zM29.9 56c14.3 0 26-11.6 26.1-26 .1-14.2-11.6-26-25.9-26C15.7 3.9 4 15.5 3.9 30c0 14.3 11.6 26 26 26z"/><path class="est0" d="M32.7 30.1c.2.3.5.5.7.8 2.7 2.9 5.5 5.8 8.2 8.6 1.1 1.2.6 3-.9 3.3-.8.2-1.4-.1-2-.7-2.7-2.9-5.4-5.7-8.2-8.6-.2-.2-.3-.4-.6-.7-.2.2-.3.4-.4.6-2.7 2.9-5.5 5.8-8.2 8.7-.9.9-2 1-2.9.2-.9-.8-.9-2 0-2.9 2.1-2.2 4.2-4.5 6.4-6.7.8-.9 1.6-1.7 2.5-2.6-.1-.2-.2-.3-.4-.4-2.8-3-5.6-5.9-8.4-8.9-.5-.5-.8-1-.7-1.7.1-.8.5-1.4 1.3-1.7.8-.3 1.5-.1 2.1.5 2.1 2.2 4.1 4.4 6.2 6.5.8.9 1.7 1.8 2.6 2.8.2-.2.3-.4.4-.6 2.8-3 5.5-5.9 8.3-8.9.9-.9 2-1 2.9-.2.9.8.9 2 0 3-2.8 3-5.6 6-8.5 8.9 0 .3-.2.5-.4.7z"/></svg><svg viewBox="0 0 511.846 511.846" id="discount" xmlns="http://www.w3.org/2000/svg"><path d="M468.881 0H332.348c-26.402 0-46.071 8.405-65.766 28.1a8.525 8.525 0 000 12.066 8.523 8.523 0 0012.066 0c16.623-16.623 31.684-23.1 53.7-23.1h136.533c14.114 0 25.6 11.486 25.6 25.6V179.2c0 22.025-6.477 37.077-23.108 53.7L217.95 486.682c-9.677 9.668-26.547 9.66-36.198 0L24.866 329.796c-4.838-4.838-7.501-11.264-7.501-18.108 0-6.835 2.662-13.261 7.501-18.091L253.918 64.87c3.516.896 7.049 1.792 10.701 2.773 34.722 9.301 62.114 18.91 82.534 27.494-4.019 7.432-6.272 15.77-6.272 24.329 0 28.237 22.963 51.2 51.2 51.2s51.2-22.963 51.2-51.2c0-28.237-22.963-51.2-51.2-51.2-4.719 0-8.533 3.823-8.533 8.533s3.814 8.533 8.533 8.533c18.825 0 34.133 15.309 34.133 34.133 0 18.825-15.309 34.133-34.133 34.133s-34.133-15.309-34.133-34.133a34.065 34.065 0 014.779-17.365c14.78 7.074 24.021 13.039 27.674 16.845-1.562.444-3.977.939-7.62 1.254-4.693.418-8.166 4.557-7.748 9.25.393 4.437 4.113 7.791 8.491 7.791.247 0 .503-.017.759-.034 5.248-.469 21.214-1.877 24.286-13.321 8.405-31.394-114.756-66.091-139.529-72.73C231.143 41 194.74 34.054 166.546 31.597c-34.671-3.038-51.541.913-54.707 12.774-1.527 5.692-5.572 20.804 63.607 48.085 4.403 1.724 9.344-.418 11.076-4.813 1.724-4.378-.427-9.336-4.804-11.059-33.425-13.184-47.275-22.844-51.729-27.392 10.539-3.089 46.524-2.193 104.465 10.982L12.8 281.523C4.736 289.587.299 300.296.299 311.688c0 11.401 4.437 22.118 12.501 30.174l156.885 156.885c8.055 8.055 18.765 12.493 30.165 12.493 11.392 0 22.101-4.437 30.174-12.501l253.423-253.773c19.703-19.695 28.1-39.364 28.1-65.766V42.667C511.548 19.14 492.407 0 468.881 0zM443.068 312.107a8.519 8.519 0 00-11.682 3.046l-97.809 166.835c-7.066 12.228-22.741 16.444-34.594 9.6L279.92 479.24c-3.951-2.569-9.242-1.434-11.793 2.517-2.569 3.951-1.434 9.242 2.517 11.802l19.43 12.578a42.333 42.333 0 0021.265 5.709c14.754 0 29.107-7.637 36.983-21.274l97.783-166.793c2.381-4.061 1.025-9.291-3.037-11.672z"/><path d="M204.348 247.467v119.467c0 4.71 3.814 8.533 8.533 8.533s8.533-3.823 8.533-8.533V247.467c0-4.71-3.814-8.533-8.533-8.533s-8.533 3.822-8.533 8.533zM255.548 273.067c0 9.412 7.654 17.067 17.067 17.067s17.067-7.654 17.067-17.067c0-9.412-7.654-17.067-17.067-17.067s-17.067 7.654-17.067 17.067zM136.081 324.267c0 9.412 7.654 17.067 17.067 17.067 9.412 0 17.067-7.654 17.067-17.067S162.56 307.2 153.148 307.2c-9.413 0-17.067 7.654-17.067 17.067z"/></svg><svg viewBox="0 0 511 512" id="exit" xmlns="http://www.w3.org/2000/svg"><path d="M361.5 392v40c0 44.113-35.887 80-80 80h-201c-44.113 0-80-35.887-80-80V80c0-44.113 35.887-80 80-80h201c44.113 0 80 35.887 80 80v40c0 11.047-8.953 20-20 20s-20-8.953-20-20V80c0-22.055-17.945-40-40-40h-201c-22.055 0-40 17.945-40 40v352c0 22.055 17.945 40 40 40h201c22.055 0 40-17.945 40-40v-40c0-11.047 8.953-20 20-20s20 8.953 20 20zm136.355-170.355l-44.785-44.786c-7.812-7.812-20.476-7.812-28.285 0-7.812 7.809-7.812 20.473 0 28.282L456.641 237H216.5c-11.047 0-20 8.953-20 20s8.953 20 20 20h240.14l-31.855 31.86c-7.812 7.808-7.812 20.472 0 28.28a19.935 19.935 0 0014.14 5.86 19.937 19.937 0 0014.145-5.86l44.785-44.785c19.497-19.496 19.497-51.214 0-70.71zm0 0"/></svg><svg viewBox="0 0 546.773 546.773" id="fb" xmlns="http://www.w3.org/2000/svg"><path d="M382.1 0h-56.953c-43.574 0-74.872 10.343-93.893 31.022-19.027 20.686-28.532 51.151-28.532 91.408v38.373c0 10.141-8.219 18.36-18.36 18.36H164.68c-10.141 0-18.36 8.219-18.36 18.36v57.503c0 10.141 8.219 18.36 18.36 18.36h19.682c10.141 0 18.36 8.219 18.36 18.36v236.666c0 10.141 8.219 18.36 18.36 18.36h76.414c10.141 0 18.36-8.22 18.36-18.36V291.747c0-10.142 8.22-18.36 18.36-18.36h38.592c10.142 0 19.224-8.176 20.289-18.256l6.095-57.712c1.065-10.085-6.291-18.256-16.433-18.256H334.21c-10.141 0-18.36-8.219-18.36-18.36v-28.752c0-7.075.331-12.552.997-16.426.661-3.868 2.154-7.681 4.48-11.445 2.319-3.757 6.083-6.358 11.279-7.797 5.195-1.438 12.111-2.16 20.734-2.16h28.752c10.141 0 18.359-8.219 18.359-18.36V18.36C400.459 8.219 392.24 0 382.1 0z"/></svg><svg viewBox="0 0 510 510" id="insta" xmlns="http://www.w3.org/2000/svg"><path d="M459 0H51C22.95 0 0 22.95 0 51v408c0 28.05 22.95 51 51 51h408c28.05 0 51-22.95 51-51V51c0-28.05-22.95-51-51-51zM255 153c56.1 0 102 45.9 102 102s-45.9 102-102 102-102-45.9-102-102 45.9-102 102-102zM63.75 459C56.1 459 51 453.9 51 446.25V229.5h53.55C102 237.15 102 247.35 102 255c0 84.15 68.85 153 153 153s153-68.85 153-153c0-7.65 0-17.85-2.55-25.5H459v216.75c0 7.65-5.1 12.75-12.75 12.75H63.75zM459 114.75c0 7.65-5.1 12.75-12.75 12.75h-51c-7.65 0-12.75-5.1-12.75-12.75v-51c0-7.65 5.1-12.75 12.75-12.75h51C453.9 51 459 56.1 459 63.75v51z"/></svg><svg viewBox="0 0 58 58" id="like" xmlns="http://www.w3.org/2000/svg"><path d="M9.5 43c-2.757 0-5 2.243-5 5s2.243 5 5 5 5-2.243 5-5-2.243-5-5-5zm0 8c-1.654 0-3-1.346-3-3s1.346-3 3-3 3 1.346 3 3-1.346 3-3 3z"/><path d="M56.5 35c0-2.495-1.375-3.662-2.715-4.233A4.992 4.992 0 0055.5 27c0-2.757-2.243-5-5-5H36.134l.729-3.41c.973-4.549.334-9.716.116-11.191C36.461 3.906 33.372 0 30.013 0h-.239C28.178 0 25.5.909 25.5 7c0 8.023-2.002 11.694-3.681 13.36-1.647 1.634-3.231 1.616-3.319 1.64h-1v-2h-16v38h16v-2h28c2.757 0 5-2.243 5-5a4.98 4.98 0 00-1.069-3.087A5.008 5.008 0 0053.5 43a4.98 4.98 0 00-1.069-3.087A5.008 5.008 0 0056.5 35zm-53 21V22h12v34h-12zm48-18h-11a1 1 0 100 2h8c1.654 0 3 1.346 3 3s-1.346 3-3 3h-10a1 1 0 100 2h7c1.654 0 3 1.346 3 3s-1.346 3-3 3h-28V24l.969-.001c.097.019 2.42.05 4.682-2.144C26.037 19.059 27.5 14.061 27.5 7c0-1.867.295-5 2.274-5h.239C32.244 2 34.621 5.13 35 7.691c.207 1.392.81 6.26-.093 10.48L33.662 24H50.5c1.654 0 3 1.346 3 3s-1.346 3-3 3h-10a1 1 0 100 2h7c.883 0 2.825.04 3.854.193C53.965 32.58 54.5 33.595 54.5 35c0 1.654-1.346 3-3 3z"/></svg><svg viewBox="0 0 95.481 95.481" id="ok" xmlns="http://www.w3.org/2000/svg"><path d="M43.041 67.254c-7.402-.772-14.076-2.595-19.79-7.064-.709-.556-1.441-1.092-2.088-1.713-2.501-2.402-2.753-5.153-.774-7.988 1.693-2.426 4.535-3.075 7.489-1.682.572.27 1.117.607 1.639.969 10.649 7.317 25.278 7.519 35.967.329 1.059-.812 2.191-1.474 3.503-1.812 2.551-.655 4.93.282 6.299 2.514 1.564 2.549 1.544 5.037-.383 7.016-2.956 3.034-6.511 5.229-10.461 6.761-3.735 1.448-7.826 2.177-11.875 2.661.611.665.899.992 1.281 1.376 5.498 5.524 11.02 11.025 16.5 16.566 1.867 1.888 2.257 4.229 1.229 6.425-1.124 2.4-3.64 3.979-6.107 3.81-1.563-.108-2.782-.886-3.865-1.977-4.149-4.175-8.376-8.273-12.441-12.527-1.183-1.237-1.752-1.003-2.796.071-4.174 4.297-8.416 8.528-12.683 12.735-1.916 1.889-4.196 2.229-6.418 1.15-2.362-1.145-3.865-3.556-3.749-5.979.08-1.639.886-2.891 2.011-4.014 5.441-5.433 10.867-10.88 16.295-16.322.359-.362.694-.746 1.217-1.305z"/><path d="M47.55 48.329c-13.205-.045-24.033-10.992-23.956-24.218C23.67 10.739 34.505-.037 47.84 0c13.362.036 24.087 10.967 24.02 24.478-.068 13.199-10.971 23.897-24.31 23.851zm12.001-24.186c-.023-6.567-5.253-11.795-11.807-11.801-6.609-.007-11.886 5.316-11.835 11.943.049 6.542 5.324 11.733 11.896 11.709 6.552-.023 11.768-5.285 11.746-11.851z"/></svg><svg viewBox="0 0 729.837 729.838" id="remove" xmlns="http://www.w3.org/2000/svg"><path d="M589.193 222.04c0-6.296 5.106-11.404 11.402-11.404S612 215.767 612 222.04v437.476c0 19.314-7.936 36.896-20.67 49.653-12.733 12.734-30.339 20.669-49.653 20.669H188.162c-19.315 0-36.943-7.935-49.654-20.669-12.734-12.734-20.669-30.313-20.669-49.653V222.04c0-6.296 5.108-11.404 11.403-11.404 6.296 0 11.404 5.131 11.404 11.404v437.476c0 13.02 5.37 24.922 13.97 33.521 8.6 8.601 20.503 13.993 33.522 13.993h353.517c13.019 0 24.896-5.394 33.498-13.993 8.624-8.624 13.992-20.503 13.992-33.498V222.04h.048z"/><path d="M279.866 630.056c0 6.296-5.108 11.403-11.404 11.403s-11.404-5.107-11.404-11.403v-405.07c0-6.296 5.108-11.404 11.404-11.404s11.404 5.108 11.404 11.404v405.07zM376.323 630.056c0 6.296-5.107 11.403-11.403 11.403s-11.404-5.107-11.404-11.403v-405.07c0-6.296 5.108-11.404 11.404-11.404s11.403 5.108 11.403 11.404v405.07zM472.803 630.056c0 6.296-5.106 11.403-11.402 11.403-6.297 0-11.404-5.107-11.404-11.403v-405.07c0-6.296 5.107-11.404 11.404-11.404 6.296 0 11.402 5.108 11.402 11.404v405.07zM273.214 70.323c0 6.296-5.108 11.404-11.404 11.404-6.295 0-11.403-5.108-11.403-11.404 0-19.363 7.911-36.943 20.646-49.677C283.787 7.911 301.368 0 320.73 0h88.379c19.339 0 36.92 7.935 49.652 20.669 12.734 12.734 20.67 30.362 20.67 49.654 0 6.296-5.107 11.404-11.403 11.404s-11.403-5.108-11.403-11.404c0-13.019-5.369-24.922-13.97-33.522-8.602-8.601-20.503-13.994-33.522-13.994h-88.378c-13.043 0-24.922 5.369-33.546 13.97-8.626 8.624-13.995 20.503-13.995 33.546zM99.782 103.108h530.273c11.189 0 21.405 4.585 28.818 11.998l.047.048c7.413 7.412 11.998 17.628 11.998 28.818v29.46c0 6.295-5.108 11.403-11.404 11.403H70.323c-6.296 0-11.404-5.108-11.404-11.403v-29.46c0-11.166 4.585-21.406 11.998-28.818l.048-.048c7.412-7.412 17.651-11.998 28.817-11.998zm530.274 22.808H99.782c-4.965 0-9.503 2.02-12.734 5.274l-.048.048a17.89 17.89 0 00-5.274 12.734v18.056h566.361v-18.056a17.94 17.94 0 00-5.273-12.734l-.049-.048a17.875 17.875 0 00-12.709-5.274z"/></svg><svg viewBox="0 0 30.143 30.143" id="reset" xmlns="http://www.w3.org/2000/svg"><path d="M20.034 2.357v3.824c3.482 1.798 5.869 5.427 5.869 9.619 0 5.98-4.848 10.83-10.828 10.83-5.982 0-10.832-4.85-10.832-10.83 0-3.844 2.012-7.215 5.029-9.136V2.689C4.245 4.918.731 9.945.731 15.801c0 7.921 6.42 14.342 14.34 14.342 7.924 0 14.342-6.421 14.342-14.342-.001-6.177-3.912-11.422-9.379-13.444z"/><path d="M14.795 17.652c1.576 0 1.736-.931 1.736-2.076V2.08c0-1.148-.16-2.08-1.736-2.08-1.57 0-1.732.932-1.732 2.08v13.496c-.001 1.146.162 2.076 1.732 2.076z"/></svg><svg viewBox="0 0 512.001 512.001" id="return" xmlns="http://www.w3.org/2000/svg"><path d="M384.834 180.699H36.101l73.326-82.187c4.755-5.33 4.289-13.505-1.041-18.26-5.328-4.754-13.505-4.29-18.26 1.041l-82.582 92.56c-10.059 11.278-10.058 28.282.001 39.557l82.582 92.561a12.897 12.897 0 009.654 4.323c3.064 0 6.139-1.083 8.606-3.282 5.33-4.755 5.795-12.93 1.041-18.26l-73.326-82.188h348.733c55.858 0 101.3 45.444 101.3 101.3s-45.443 101.3-101.3 101.3h-61.58c-7.143 0-12.933 5.791-12.933 12.933 0 7.142 5.79 12.933 12.933 12.933h61.58c70.12 0 127.166-57.046 127.166-127.166-.001-70.119-57.047-127.165-127.167-127.165z"/></svg><svg viewBox="0 0 306 306" id="right-arrow" xmlns="http://www.w3.org/2000/svg"><path d="M94.35 0l-35.7 35.7L175.95 153 58.65 270.3l35.7 35.7 153-153z"/></svg><svg viewBox="0 0 490.282 490.282" id="send" xmlns="http://www.w3.org/2000/svg"><path d="M.043 245.197c.6 10.1 7.3 18.6 17 21.5l179.6 54.3 6.6 123.8c.3 4.9 3.6 9.2 8.3 10.8 1.3.5 2.7.7 4 .7 3.5 0 6.8-1.4 9.2-4.1l63.5-70.3 90 62.3c4 2.8 8.7 4.3 13.6 4.3 11.3 0 21.1-8 23.5-19.2l74.7-380.7c.9-4.4-.8-9-4.2-11.8-3.5-2.9-8.2-3.6-12.4-1.9l-459 186.8c-9.3 4.2-15 13.4-14.4 23.5zm226 168.9l-4.1-78.1 46 31.8-41.9 46.3zm165.4 9.5l-163.8-113.4 229.7-222.2-65.9 335.6zm40.7-345.4l-227.1 219.7-179.4-54.2 406.5-165.5z"/></svg><svg viewBox="0 0 67 67" id="sign-in" xmlns="http://www.w3.org/2000/svg"><path d="M4.25 35h39.899L33.86 45.478c-.781.78-.781 2.142-.001 2.923.391.391.902.634 1.415.634.512 0 1.023-.171 1.414-.562l12.815-12.801a1.987 1.987 0 000-2.819l-.608-.607a1.978 1.978 0 00-.513-.511L36.689 20.042a2 2 0 00-2.828 0c-.781.781-.781 1.856 0 2.638L42.373 31H4.25a2 2 0 000 4z"/><path d="M64.75 59.281V9.541C64.75 4.747 60.842 0 56.003 0H30.002c-4.744 0-9.252 4.576-9.252 9.541v11.84a2 2 0 004 0V9.541C24.75 6.792 27.471 4 30.002 4h26.001c2.647 0 4.747 2.937 4.747 5.541v49.74c0 2.663-2.203 3.719-4.747 3.719H30.002c-2.365 0-5.252-.887-5.252-3.719v-11.9a2 2 0 00-4 0v11.9c0 4.693 4.181 7.719 9.252 7.719h26.001c5.185 0 8.747-3.177 8.747-7.719z"/></svg><svg viewBox="0 0 512 512" id="truck" xmlns="http://www.w3.org/2000/svg"><path d="M119.467 337.067c-28.237 0-51.2 22.963-51.2 51.2 0 28.237 22.963 51.2 51.2 51.2s51.2-22.963 51.2-51.2c0-28.237-22.964-51.2-51.2-51.2zm0 85.333c-18.825 0-34.133-15.309-34.133-34.133 0-18.825 15.309-34.133 34.133-34.133s34.133 15.309 34.133 34.133c0 18.824-15.309 34.133-34.133 34.133zM409.6 337.067c-28.237 0-51.2 22.963-51.2 51.2 0 28.237 22.963 51.2 51.2 51.2 28.237 0 51.2-22.963 51.2-51.2 0-28.237-22.963-51.2-51.2-51.2zm0 85.333c-18.825 0-34.133-15.309-34.133-34.133 0-18.825 15.309-34.133 34.133-34.133 18.825 0 34.133 15.309 34.133 34.133 0 18.824-15.308 34.133-34.133 34.133z"/><path d="M510.643 289.784l-76.8-119.467a8.535 8.535 0 00-7.177-3.917H332.8a8.53 8.53 0 00-8.533 8.533v213.333a8.525 8.525 0 008.533 8.533h34.133v-17.067h-25.6V183.467h80.674l72.926 113.442v82.825h-42.667V396.8h51.2a8.525 8.525 0 008.533-8.533V294.4a8.51 8.51 0 00-1.356-4.616z"/><path d="M375.467 277.333V217.6h68.267v-17.067h-76.8a8.53 8.53 0 00-8.533 8.533v76.8a8.525 8.525 0 008.533 8.533h128v-17.067H375.467zM332.8 106.667H8.533A8.536 8.536 0 000 115.2v273.067a8.53 8.53 0 008.533 8.533H76.8v-17.067H17.067v-256h307.2v256H162.133V396.8H332.8a8.525 8.525 0 008.533-8.533V115.2a8.53 8.53 0 00-8.533-8.533z"/><path d="M8.533 345.6h51.2v17.067h-51.2zM179.2 345.6h145.067v17.067H179.2zM469.333 345.6h34.133v17.067h-34.133zM34.133 140.8H332.8v17.067H34.133zM110.933 379.733H128V396.8h-17.067zM401.067 379.733h17.067V396.8h-17.067zM34.133 72.533H153.6V89.6H34.133zM0 72.533h17.067V89.6H0z"/></svg><svg viewBox="0 0 612 612" id="twitter" xmlns="http://www.w3.org/2000/svg"><path d="M612 116.258a250.714 250.714 0 01-72.088 19.772c25.929-15.527 45.777-40.155 55.184-69.411-24.322 14.379-51.169 24.82-79.775 30.48-22.907-24.437-55.49-39.658-91.63-39.658-69.334 0-125.551 56.217-125.551 125.513 0 9.828 1.109 19.427 3.251 28.606-104.326-5.24-196.835-55.223-258.75-131.174-10.823 18.51-16.98 40.078-16.98 63.101 0 43.559 22.181 81.993 55.835 104.479a125.556 125.556 0 01-56.867-15.756v1.568c0 60.806 43.291 111.554 100.693 123.104-10.517 2.83-21.607 4.398-33.08 4.398-8.107 0-15.947-.803-23.634-2.333 15.985 49.907 62.336 86.199 117.253 87.194-42.947 33.654-97.099 53.655-155.916 53.655-10.134 0-20.116-.612-29.944-1.721 55.567 35.681 121.536 56.485 192.438 56.485 230.948 0 357.188-191.291 357.188-357.188l-.421-16.253c24.666-17.593 46.005-39.697 62.794-64.861z"/></svg><svg viewBox="0 0 52.511 52.511" id="viber" xmlns="http://www.w3.org/2000/svg"><path d="M31.256 0H21.254C10.778 0 2.255 8.521 2.255 18.995v9.01c0 7.8 4.793 14.81 12 17.665v5.841a.999.999 0 001.671.741L21.725 47h9.531c10.476 0 18.999-8.521 18.999-18.995v-9.01C50.255 8.521 41.732 0 31.256 0zm16.999 28.005C48.255 37.376 40.63 45 31.256 45h-9.917a.998.998 0 00-.671.259l-4.413 3.997v-4.279a.997.997 0 00-.667-.942 17.03 17.03 0 01-11.333-16.03v-9.01C4.255 9.624 11.881 2 21.254 2h10.002c9.374 0 16.999 7.624 16.999 16.995v9.01z"/><path d="M39.471 30.493l-6.146-3.992a2.994 2.994 0 00-4.15.88l-.289.444c-2.66-.879-5.593-2.002-7.349-7.085l.727-.632a3.005 3.005 0 00.294-4.233l-4.808-5.531a1.001 1.001 0 00-1.411-.099l-3.019 2.624c-2.648 2.302-1.411 5.707-1.004 6.826.018.05.04.098.066.145.105.188 2.612 4.662 6.661 8.786 4.065 4.141 11.404 7.965 11.629 8.076a5.006 5.006 0 006.916-1.47l2.178-3.354c.3-.465.168-1.084-.295-1.385zm-3.561 3.649c-.901 1.388-2.763 1.782-4.233.834-.073-.038-7.364-3.835-11.207-7.75-3.592-3.659-5.977-7.724-6.302-8.291-.792-2.221-.652-3.586.464-4.556l2.265-1.968 4.152 4.776a.99.99 0 01-.096 1.411l-1.227 1.066a.999.999 0 00-.3 1.049c2.092 6.798 6.16 8.133 9.13 9.108l.433.143a.996.996 0 001.155-.403l.709-1.092a.988.988 0 01.63-.434.99.99 0 01.753.143l5.308 3.447-1.634 2.517zM28.538 16.247a1 1 0 10-.548 1.923 4.524 4.524 0 013.097 3.104 1 1 0 001.925-.542 6.538 6.538 0 00-4.474-4.485z"/><path d="M36.148 22.219a1 1 0 00.963-1.271c-1.18-4.183-4.509-7.519-8.689-8.709a1 1 0 00-.547 1.924c3.517 1 6.318 3.809 7.311 7.328a1 1 0 00.962.728z"/><path d="M27.991 7.582a1 1 0 10-.548 1.924c5.959 1.695 10.706 6.453 12.388 12.416a1 1 0 001.925-.542c-1.869-6.627-7.143-11.913-13.765-13.798z"/></svg><svg viewBox="0 0 548.358 548.358" id="vk" xmlns="http://www.w3.org/2000/svg"><path d="M545.451 400.298c-.664-1.431-1.283-2.618-1.858-3.569-9.514-17.135-27.695-38.167-54.532-63.102l-.567-.571-.284-.28-.287-.287h-.288c-12.18-11.611-19.893-19.418-23.123-23.415-5.91-7.614-7.234-15.321-4.004-23.13 2.282-5.9 10.854-18.36 25.696-37.397 7.807-10.089 13.99-18.175 18.556-24.267 32.931-43.78 47.208-71.756 42.828-83.939l-1.701-2.847c-1.143-1.714-4.093-3.282-8.846-4.712-4.764-1.427-10.853-1.663-18.278-.712l-82.224.568c-1.332-.472-3.234-.428-5.712.144l-3.713.859-1.431.715-1.136.859c-.952.568-1.999 1.567-3.142 2.995-1.137 1.423-2.088 3.093-2.848 4.996-8.952 23.031-19.13 44.444-30.553 64.238-7.043 11.803-13.511 22.032-19.418 30.693-5.899 8.658-10.848 15.037-14.842 19.126-4 4.093-7.61 7.372-10.852 9.849-3.237 2.478-5.708 3.525-7.419 3.142-1.715-.383-3.33-.763-4.859-1.143-2.663-1.714-4.805-4.045-6.42-6.995-1.622-2.95-2.714-6.663-3.285-11.136-.568-4.476-.904-8.326-1-11.563-.089-3.233-.048-7.806.145-13.706.198-5.903.287-9.897.287-11.991 0-7.234.141-15.085.424-23.555.288-8.47.521-15.181.716-20.125.194-4.949.284-10.185.284-15.705s-.336-9.849-1-12.991a44.442 44.442 0 00-2.99-9.137c-1.335-2.95-3.289-5.232-5.853-6.852-2.569-1.618-5.763-2.902-9.564-3.856-10.089-2.283-22.936-3.518-38.547-3.71-35.401-.38-58.148 1.906-68.236 6.855-3.997 2.091-7.614 4.948-10.848 8.562-3.427 4.189-3.905 6.475-1.431 6.851 11.422 1.711 19.508 5.804 24.267 12.275l1.715 3.429c1.334 2.474 2.666 6.854 3.999 13.134 1.331 6.28 2.19 13.227 2.568 20.837.95 13.897.95 25.793 0 35.689-.953 9.9-1.853 17.607-2.712 23.127-.859 5.52-2.143 9.993-3.855 13.418-1.715 3.426-2.856 5.52-3.428 6.28-.571.76-1.047 1.239-1.425 1.427a21.387 21.387 0 01-7.71 1.431c-2.667 0-5.901-1.334-9.707-4-3.805-2.666-7.754-6.328-11.847-10.992-4.093-4.665-8.709-11.184-13.85-19.558-5.137-8.374-10.467-18.271-15.987-29.691l-4.567-8.282c-2.855-5.328-6.755-13.086-11.704-23.267-4.952-10.185-9.329-20.037-13.134-29.554-1.521-3.997-3.806-7.04-6.851-9.134l-1.429-.859c-.95-.76-2.475-1.567-4.567-2.427a30.301 30.301 0 00-6.567-1.854l-78.229.568c-7.994 0-13.418 1.811-16.274 5.428l-1.143 1.711c-.571.953-.859 2.475-.859 4.57 0 2.094.571 4.664 1.714 7.707 11.42 26.84 23.839 52.725 37.257 77.659 13.418 24.934 25.078 45.019 34.973 60.237 9.897 15.229 19.985 29.602 30.264 43.112 10.279 13.515 17.083 22.176 20.412 25.981 3.333 3.812 5.951 6.662 7.854 8.565l7.139 6.851c4.568 4.569 11.276 10.041 20.127 16.416 8.853 6.379 18.654 12.659 29.408 18.85 10.756 6.181 23.269 11.225 37.546 15.126 14.275 3.905 28.169 5.472 41.684 4.716h32.834c6.659-.575 11.704-2.669 15.133-6.283l1.136-1.431c.764-1.136 1.479-2.901 2.139-5.276.668-2.379 1-5 1-7.851-.195-8.183.428-15.558 1.852-22.124 1.423-6.564 3.045-11.513 4.859-14.846 1.813-3.33 3.859-6.14 6.136-8.418 2.282-2.283 3.908-3.666 4.862-4.142.948-.479 1.705-.804 2.276-.999 4.568-1.522 9.944-.048 16.136 4.429 6.187 4.473 11.99 9.996 17.418 16.56 5.425 6.57 11.943 13.941 19.555 22.124 7.617 8.186 14.277 14.271 19.985 18.274l5.708 3.426c3.812 2.286 8.761 4.38 14.853 6.283 6.081 1.902 11.409 2.378 15.984 1.427l73.087-1.14c7.229 0 12.854-1.197 16.844-3.572 3.998-2.379 6.373-5 7.139-7.851.764-2.854.805-6.092.145-9.712-.677-3.611-1.344-6.136-2.008-7.563z"/></svg><svg viewBox="0 0 512.001 512.001" id="wallet" xmlns="http://www.w3.org/2000/svg"><path d="M489.502 218.492h-7.496V115.988c0-26.192-21.309-47.501-47.5-47.501H228.527L89.564 28.783c-.04-.011-.081-.017-.121-.028-.041-.011-.08-.027-.121-.037-.084-.021-.167-.031-.25-.049-.129-.027-.258-.055-.387-.076-.117-.019-.232-.031-.349-.045a7.042 7.042 0 00-.406-.038c-.11-.006-.219-.007-.329-.009a7.276 7.276 0 00-.418.003c-.103.004-.206.014-.308.022a6.712 6.712 0 00-.427.046c-.096.014-.191.032-.286.049-.146.026-.29.054-.433.089-.089.022-.176.047-.264.072-.146.042-.29.085-.434.135-.081.029-.161.06-.242.092a7.358 7.358 0 00-.43.18c-.075.035-.148.073-.222.11a6.66 6.66 0 00-.416.224c-.071.041-.139.085-.209.129-.134.084-.266.17-.394.263-.067.048-.132.1-.198.151a7.277 7.277 0 00-.362.295c-.066.058-.129.119-.193.179-.11.104-.219.208-.323.318-.065.069-.126.141-.189.213a7.45 7.45 0 00-.278.334c-.064.083-.124.168-.185.253a6.913 6.913 0 00-.229.338c-.062.098-.119.2-.176.301a6.86 6.86 0 00-.183.338c-.056.112-.106.227-.157.342-.05.113-.099.226-.143.342-.046.122-.086.247-.127.373-.026.081-.058.157-.082.239-.012.041-.017.081-.028.121-.011.041-.027.08-.037.121l-8.576 34.312H47.505C21.366 68.485.094 89.708.008 115.828c-.001.054-.008.105-.008.158v260c0 4.14 3.37 7.5 7.5 7.5 4.14 0 7.5-3.36 7.5-7.5V150.579c8.504 7.996 19.938 12.91 32.505 12.91h387.001l.026-.001c17.908.014 32.474 14.588 32.474 32.501v52.504h-82.512l-.014.001a7.468 7.468 0 00-1.355.13c-.035.006-.069.009-.104.016a7.536 7.536 0 00-.579.145c-.042.012-.085.02-.126.033-.17.052-.335.114-.5.177-.063.024-.127.044-.19.07-.138.057-.271.124-.404.189-.088.042-.177.081-.263.126-.104.055-.202.118-.302.178-.111.066-.224.13-.332.202-.073.048-.14.103-.21.154-.128.092-.257.183-.379.284-.053.044-.102.093-.153.138-.131.114-.262.227-.386.351-.073.073-.139.153-.208.229-.097.105-.197.208-.289.32a7.573 7.573 0 00-.444.599l-39.998 60.001a7.383 7.383 0 00-.702 1.322c-.071.172-.128.347-.185.521-.017.053-.039.104-.055.157a7.46 7.46 0 00-.14.558c-.011.049-.025.097-.035.146a7.265 7.265 0 00-.076.506c-.009.072-.023.144-.03.217-.014.139-.017.277-.022.416-.005.106-.014.212-.014.319 0 .103.009.206.013.309.005.142.009.285.023.427.007.069.02.138.029.207.022.172.044.344.078.515.009.047.023.093.034.14.041.188.085.376.141.563.016.053.038.104.055.158.057.174.114.349.185.521.188.46.424.904.704 1.323l39.997 59.992.006.008c.161.239.337.467.523.686.061.072.126.139.189.207a7.508 7.508 0 001.091.979c.07.051.137.107.208.155.225.153.458.294.699.422.061.032.124.059.185.089a7.239 7.239 0 001.407.532c.081.021.161.043.243.063.203.047.409.083.618.113.076.011.151.026.227.035.258.029.52.045.786.047.021 0 .042.004.064.004l.014-.001h82.491V436c0 17.922-14.58 32.502-32.5 32.502h-387c-17.92 0-32.5-14.58-32.5-32.502 0-.039-.005-.077-.006-.116V405.99c0-4.13-3.36-7.5-7.5-7.5-4.13 0-7.5 3.37-7.5 7.5V436c0 .078.009.154.012.231.125 26.086 21.38 47.271 47.494 47.271h387c26.189 0 47.496-21.305 47.5-47.494v-52.516h7.496c12.404 0 22.496-10.092 22.496-22.496V240.988c-.003-12.404-10.095-22.496-22.499-22.496zM92.9 45.336l132.339 37.813.019.005 88.696 25.342H77.114L92.9 45.336zm374.105 116.058c-8.503-7.994-19.935-12.907-32.499-12.907l-.039.002H47.505c-17.921 0-32.501-14.58-32.501-32.501s14.58-32.501 32.501-32.501h20.398l-6.25 25.009H47.507a7.5 7.5 0 000 15h19.976l.032.002.023-.002h299.941l.028.002.024-.002h56.966a7.5 7.5 0 000-15h-55.943l-87.529-25.009h153.48c17.92 0 32.5 14.58 32.5 32.501v45.406zm29.993 199.598c0 4.133-3.363 7.496-7.496 7.496H388.508l-34.999-52.494 34.999-52.502h100.994c.105 0 .207-.012.311-.016a22.414 22.414 0 007.185-1.281v98.797zm-7.496-112.508c-.052 0-.103.007-.155.008h-7.341v-15h7.496c4.133 0 7.496 3.363 7.496 7.496s-3.363 7.496-7.496 7.496z"/><path d="M414.499 288.493c-15.164 0-27.5 12.337-27.5 27.501s12.336 27.5 27.5 27.5 27.5-12.336 27.5-27.5-12.336-27.501-27.5-27.501zm0 40.001c-6.893 0-12.5-5.607-12.5-12.5s5.607-12.501 12.5-12.501 12.5 5.608 12.5 12.501-5.607 12.5-12.5 12.5z"/></svg><svg viewBox="0 0 90 90" id="whatsapp" xmlns="http://www.w3.org/2000/svg"><path d="M90 43.841c0 24.213-19.779 43.841-44.182 43.841a44.256 44.256 0 01-21.357-5.455L0 90l7.975-23.522a43.38 43.38 0 01-6.34-22.637C1.635 19.628 21.416 0 45.818 0 70.223 0 90 19.628 90 43.841zM45.818 6.982c-20.484 0-37.146 16.535-37.146 36.859 0 8.065 2.629 15.534 7.076 21.61L11.107 79.14l14.275-4.537A37.122 37.122 0 0045.819 80.7c20.481 0 37.146-16.533 37.146-36.857S66.301 6.982 45.818 6.982zm22.311 46.956c-.273-.447-.994-.717-2.076-1.254-1.084-.537-6.41-3.138-7.4-3.495-.993-.358-1.717-.538-2.438.537-.721 1.076-2.797 3.495-3.43 4.212-.632.719-1.263.809-2.347.271-1.082-.537-4.571-1.673-8.708-5.333-3.219-2.848-5.393-6.364-6.025-7.441-.631-1.075-.066-1.656.475-2.191.488-.482 1.084-1.255 1.625-1.882.543-.628.723-1.075 1.082-1.793.363-.717.182-1.344-.09-1.883-.27-.537-2.438-5.825-3.34-7.977-.902-2.15-1.803-1.792-2.436-1.792-.631 0-1.354-.09-2.076-.09s-1.896.269-2.889 1.344c-.992 1.076-3.789 3.676-3.789 8.963 0 5.288 3.879 10.397 4.422 11.113.541.716 7.49 11.92 18.5 16.223C58.2 65.771 58.2 64.336 60.186 64.156c1.984-.179 6.406-2.599 7.312-5.107.9-2.512.9-4.663.631-5.111z"/></svg></svg>