<?xml version="1.0" encoding="utf-8"?><svg xmlns="http://www.w3.org/2000/svg" viewBox="0 0 60 60" width="60" height="60"><path class="bst0" d="M60 29.3v1.4c0 .2-.1.5-.1.7-.1 1-.1 2.1-.3 3.1-1 6.4-3.8 12-8.4 16.6-4.7 4.7-10.4 7.6-17.1 8.5-.9.1-1.9.2-2.8.3h-2.7c-.5-.1-1-.1-1.4-.2-5.5-.6-10.5-2.4-14.9-5.7C5.9 49.4 1.9 43.1.5 35.2.3 34.1.2 33 0 31.9v-3.8c0-.4.1-.8.1-1.2.8-6.3 3.1-11.9 7.4-16.7 4.9-5.5 11-8.8 18.2-9.9.8-.1 1.7-.2 2.5-.3h3.4c.2 0 .4.1.6.1 1.3.2 2.6.3 3.8.5 6.6 1.4 12.2 4.7 16.6 9.8 3.9 4.5 6.2 9.6 7 15.5.2 1.1.3 2.3.4 3.4zM29.9 56c14.3 0 26-11.6 26.1-26 .1-14.2-11.6-26-25.9-26C15.7 3.9 4 15.5 3.9 30c0 14.3 11.6 26 26 26z"/><path class="bst0" d="M32.7 30.1c.2.3.5.5.7.8 2.7 2.9 5.5 5.8 8.2 8.6 1.1 1.2.6 3-.9 3.3-.8.2-1.4-.1-2-.7-2.7-2.9-5.4-5.7-8.2-8.6-.2-.2-.3-.4-.6-.7-.2.2-.3.4-.4.6-2.7 2.9-5.5 5.8-8.2 8.7-.9.9-2 1-2.9.2-.9-.8-.9-2 0-2.9 2.1-2.2 4.2-4.5 6.4-6.7.8-.9 1.6-1.7 2.5-2.6-.1-.2-.2-.3-.4-.4-2.8-3-5.6-5.9-8.4-8.9-.5-.5-.8-1-.7-1.7.1-.8.5-1.4 1.3-1.7.8-.3 1.5-.1 2.1.5 2.1 2.2 4.1 4.4 6.2 6.5.8.9 1.7 1.8 2.6 2.8.2-.2.3-.4.4-.6 2.8-3 5.5-5.9 8.3-8.9.9-.9 2-1 2.9-.2.9.8.9 2 0 3-2.8 3-5.6 6-8.5 8.9 0 .3-.2.5-.4.7z"/></svg>